<svg width="19" height="29" viewBox="0 0 19 29" fill="none" xmlns="http://www.w3.org/2000/svg">
<path d="M18.7302 10.6887C17.693 9.48044 16.4428 8.48065 15.0244 7.73437C14.0488 5.53342 11.8798 3.99821 9.36269 3.99821C6.8456 3.99821 4.68369 5.53342 3.71047 7.73437C2.29209 8.48065 1.04183 9.48281 0.0046812 10.6887C-0.161073 5.24201 4.09644 0.769043 9.36506 0.769043C14.6384 0.769043 18.8888 5.24201 18.7302 10.6887Z" fill="white"/>
<path d="M14.0297 14.9365C12.8954 13.6169 11.2237 12.7711 9.36485 12.7711C8.69473 12.7711 8.04356 12.8848 7.43737 13.0909V9.74567C8.06724 9.61063 8.70894 9.53955 9.36485 9.53955C11.8109 9.53955 14.0368 10.5062 15.7038 12.0817C15.7961 12.1764 15.8932 12.2688 15.9856 12.3588C16.1916 12.5555 16.381 12.7735 16.5562 12.9985C16.6415 13.1075 16.7243 13.2165 16.8096 13.3326C16.8854 13.425 16.954 13.5245 17.0227 13.624C17.0582 13.6737 17.0843 13.7164 17.1127 13.759C17.1198 13.7661 17.1269 13.7803 17.134 13.7875C17.1814 13.8656 17.2382 13.9509 17.2855 14.0362C17.3613 14.1499 17.4229 14.2637 17.4868 14.3774C17.4939 14.3845 17.501 14.3916 17.501 14.3987C17.5697 14.5266 17.6384 14.6546 17.7023 14.7754C17.6881 14.8038 17.6739 14.8394 17.6478 14.882C17.6407 14.9033 17.6265 14.9175 17.6123 14.946C17.591 14.9744 17.5697 15.017 17.5507 15.0597C17.4892 15.1734 17.4063 15.3085 17.3163 15.4719C17.295 15.5075 17.3069 15.5691 17.3069 15.5691C17.3069 15.5691 17.2477 15.5927 17.2405 15.5999C16.999 16.0334 16.6675 16.602 16.2792 17.2677C14.4156 20.4543 11.2663 25.792 9.94499 27.9053C9.67268 28.3388 9.05703 28.3388 8.78472 27.9053C7.46342 25.7943 4.31882 20.4614 2.46001 17.2725C2.07404 16.6044 1.74016 16.0287 1.49153 15.5975C1.48443 15.5904 1.47732 15.5762 1.47732 15.5691C1.45601 15.5335 1.4347 15.5051 1.41576 15.4696C1.39444 15.4269 1.37313 15.3914 1.34709 15.3558C1.28552 15.2421 1.22869 15.1426 1.18133 15.0573C1.16002 15.0147 1.13871 14.972 1.11977 14.9436C1.10556 14.9152 1.09845 14.901 1.08425 14.8796C1.06294 14.837 1.04162 14.8015 1.02979 14.773C1.09845 14.6451 1.16002 14.5172 1.23106 14.3963C1.29973 14.2755 1.3755 14.1476 1.45127 14.0267C1.45838 14.0125 1.46548 13.9912 1.47969 13.977C1.54126 13.8775 1.60992 13.7709 1.68096 13.6714C1.75674 13.5576 1.83961 13.4439 1.92249 13.3302C1.92249 13.3231 1.92959 13.316 1.92959 13.316C2.00537 13.2236 2.07404 13.1312 2.14271 13.0459C2.15691 13.0175 2.17823 12.9962 2.19717 12.9748C2.28005 12.8682 2.37003 12.7687 2.46001 12.6692C2.54999 12.5626 2.64707 12.456 2.74416 12.3565L3.04252 12.058L9.36722 22.7097C9.58507 22.4633 12.5023 17.5284 14.0297 14.9365Z" fill="white"/>
</svg>
