<svg width="207" height="298" viewBox="0 0 207 298" fill="none" xmlns="http://www.w3.org/2000/svg">
<path d="M204.371 108.201C193.17 95.281 179.648 84.5578 164.338 76.577C153.808 53.0083 130.358 36.5909 103.17 36.5909C75.9809 36.5909 52.6139 53.0083 42.0837 76.577C26.7745 84.5578 13.2518 95.281 2.05075 108.201C0.256764 49.8922 46.2596 2 103.17 2C160.155 2 206.09 49.8922 204.371 108.201Z" stroke="white" stroke-width="4"/>
<path d="M189.068 159.366C190.04 157.618 190.937 156.176 191.608 154.958C191.834 154.502 192.053 154.046 192.279 153.74C192.43 153.433 192.58 153.276 192.656 153.052C192.95 152.596 193.101 152.215 193.251 151.909C192.58 150.616 191.834 149.248 191.088 147.881C191.088 147.799 191.013 147.724 190.937 147.649C190.266 146.439 189.595 145.221 188.774 144.003C188.254 143.091 187.651 142.179 187.131 141.342C187.055 141.26 186.98 141.111 186.904 141.036C186.603 140.58 186.309 140.124 185.932 139.594C185.186 138.533 184.44 137.464 183.618 136.478C182.706 135.237 181.786 134.079 180.874 132.913C178.967 130.492 176.94 128.168 174.708 126.053C173.706 125.112 172.651 124.103 171.663 123.094C153.663 106.221 129.618 95.8788 103.175 95.8788C96.0822 95.8788 89.14 96.6411 82.3409 98.0833V133.892C88.9138 131.688 95.9315 130.47 103.175 130.47C123.263 130.47 141.339 139.519 153.588 153.657C137.08 181.403 105.565 234.242 103.175 236.91L34.8381 122.878L31.627 126.068C30.5792 127.137 29.539 128.273 28.5667 129.416C27.5943 130.477 26.6219 131.538 25.7249 132.682C25.5063 132.913 25.2802 133.137 25.1295 133.444C24.3832 134.355 23.637 135.349 22.8154 136.336C22.8154 136.336 22.74 136.41 22.74 136.485C21.843 137.696 20.946 138.914 20.1244 140.132C19.3782 141.193 18.6319 142.336 17.9611 143.397C17.8103 143.547 17.7349 143.778 17.6595 143.928C16.8379 145.221 16.0163 146.588 15.2701 147.881C14.5238 149.174 13.853 150.541 13.1068 151.909C13.2575 152.215 13.4761 152.596 13.7022 153.052C13.853 153.284 13.9284 153.433 14.0791 153.74C14.3053 154.046 14.5238 154.502 14.75 154.958C15.2776 155.869 15.8731 156.93 16.544 158.148C16.8455 158.53 17.0641 158.911 17.2902 159.366C17.5088 159.74 17.7349 160.046 17.9611 160.428C17.9611 160.51 18.0364 160.659 18.1118 160.734C20.8028 165.374 24.3832 171.532 28.5667 178.676C48.6623 212.826 82.65 269.909 96.9114 292.514C99.8436 297.162 106.514 297.162 109.447 292.514C123.731 269.894 157.771 212.751 177.867 178.601C182.05 171.45 186.516 163.893 189.131 159.253" stroke="white" stroke-width="4"/>
</svg>
