<svg width="105" height="23" viewBox="0 0 105 23" fill="none" xmlns="http://www.w3.org/2000/svg">
<path d="M0 8.9342C0 7.73455 0.221409 6.6232 0.662077 5.59369C1.10274 4.56634 1.70463 3.67467 2.46774 2.91869C3.2287 2.16272 4.12293 1.57043 5.14829 1.14183C6.17365 0.713224 7.26349 0.5 8.41783 0.5C9.05841 0.5 9.66674 0.560306 10.245 0.683071C10.8211 0.803683 11.3778 1.00183 11.9109 1.27105C12.444 1.54243 12.9685 1.88488 13.4823 2.29841C13.996 2.71193 14.5076 3.21161 15.0214 3.79744L13.291 5.44508C11.9668 3.68975 10.3568 2.81101 8.46297 2.81101C7.60743 2.81101 6.81423 2.96823 6.08121 3.28268C5.3482 3.59713 4.70977 4.02789 4.16807 4.57711C3.62637 5.12632 3.2029 5.77245 2.89766 6.51551C2.59027 7.25856 2.43765 8.06407 2.43765 8.9342C2.43765 9.8194 2.60531 10.6335 2.94065 11.3744C3.27599 12.1175 3.71666 12.755 4.2648 13.2913C4.81295 13.8254 5.43634 14.2433 6.13495 14.5448C6.83357 14.8442 7.54509 14.9949 8.27166 14.9949C8.94018 14.9949 9.56141 14.8851 10.1311 14.6633C10.7007 14.4414 11.1951 14.1463 11.6164 13.7759C12.0356 13.4054 12.3752 12.9661 12.631 12.4599C12.8868 11.9538 13.0438 11.4218 13.1018 10.864V10.8425H9.0842V8.54867H15.7501V9.08281C15.7501 10.3105 15.5717 11.4261 15.217 12.4341C14.8602 13.4399 14.3593 14.2993 13.7101 15.0143C13.061 15.7272 12.2721 16.2807 11.3391 16.6727C10.4062 17.0647 9.36365 17.2607 8.20932 17.2607C7.07003 17.2607 6.00168 17.0432 5.00427 16.6081C4.00685 16.1731 3.13841 15.5765 2.3968 14.8205C1.65519 14.0645 1.07265 13.1793 0.64488 12.167C0.21496 11.1526 0 10.0757 0 8.9342Z" fill="white"/>
<path d="M22.6052 6.4939C23.3597 6.4939 24.0368 6.61882 24.6344 6.86865C25.232 7.11849 25.735 7.47817 26.1413 7.94985C26.5475 8.42153 26.8571 8.98797 27.0699 9.65134C27.2827 10.3147 27.3902 11.0534 27.3902 11.8676V12.4233H20.1052C20.1761 13.2654 20.4405 13.9331 20.8963 14.4241C21.352 14.9173 21.9711 15.1629 22.7557 15.1629C23.3253 15.1629 23.8133 15.0336 24.2195 14.7773C24.6258 14.521 25.0063 14.0924 25.3631 13.4937L27.2849 14.6718C26.7862 15.529 26.1585 16.173 25.404 16.608C24.6495 17.0431 23.738 17.2606 22.6697 17.2606C21.9152 17.2606 21.2273 17.1314 20.6082 16.8751C19.9891 16.6188 19.4625 16.2548 19.0283 15.7831C18.594 15.3115 18.2544 14.745 18.0136 14.0817C17.7707 13.4183 17.6504 12.686 17.6504 11.887C17.6504 11.0879 17.7686 10.3556 18.0029 9.69226C18.2372 9.02889 18.5725 8.46245 19.0068 7.99077C19.441 7.5191 19.9655 7.15295 20.5781 6.88804C21.1886 6.62528 21.8657 6.4939 22.6052 6.4939ZM20.2557 10.4956H24.9783C24.8795 9.86672 24.6194 9.39288 24.198 9.07197C23.7789 8.75106 23.2544 8.58952 22.6267 8.58952C21.999 8.58952 21.4874 8.76183 21.0876 9.10428C20.6899 9.44673 20.4126 9.91195 20.2557 10.4956Z" fill="white"/>
<path d="M28.9293 11.803C28.9293 11.075 29.0582 10.3901 29.314 9.74826C29.5698 9.10643 29.9374 8.54645 30.4146 8.06831C30.8918 7.59017 31.4615 7.20895 32.1236 6.9225C32.7856 6.6382 33.523 6.4939 34.3355 6.4939C35.1481 6.4939 35.8854 6.63389 36.5474 6.91173C37.2095 7.18957 37.7792 7.57294 38.2564 8.05754C38.7336 8.54214 39.1033 9.11289 39.3677 9.7698C39.6321 10.4267 39.7632 11.1331 39.7632 11.8891C39.7632 12.6451 39.6321 13.3515 39.3677 14.0084C39.1033 14.6653 38.7336 15.2318 38.2564 15.7099C37.7792 16.1881 37.2052 16.5671 36.5367 16.845C35.8682 17.1228 35.1201 17.2628 34.2925 17.2628C33.495 17.2628 32.7641 17.1228 32.1021 16.845C31.44 16.5671 30.8725 16.1859 30.4039 15.6992C29.9331 15.2146 29.5698 14.6352 29.314 13.9654C29.0582 13.2934 28.9293 12.574 28.9293 11.803ZM31.3218 11.846C31.3218 12.8605 31.5926 13.666 32.1343 14.2647C32.676 14.8635 33.409 15.1629 34.3355 15.1629C35.2469 15.1629 35.98 14.8635 36.5367 14.2647C37.0934 13.666 37.3707 12.8734 37.3707 11.8891C37.3707 10.9199 37.0956 10.1295 36.5474 9.52427C35.9993 8.9169 35.262 8.61537 34.3355 8.61537C33.8948 8.61537 33.4886 8.69291 33.1167 8.85013C32.747 9.00736 32.4267 9.23135 32.1558 9.52427C31.885 9.81718 31.6786 10.1596 31.5367 10.5516C31.3949 10.9436 31.3218 11.3744 31.3218 11.846Z" fill="white"/>
<path d="M42.4976 6.77169V3.04565H44.8471V6.76954H46.6635V8.97501H44.8471V16.9591H42.4976V8.97716H40.8531V6.77169H42.4976Z" fill="white"/>
<path d="M47.5405 11.8462C47.5405 11.0903 47.6652 10.3881 47.9146 9.73768C48.1639 9.08939 48.5121 8.5251 48.9614 8.04696C49.4107 7.56882 49.9373 7.19407 50.5414 6.92269C51.1476 6.65131 51.8053 6.51562 52.5168 6.51562C53.1574 6.51562 53.7486 6.62332 54.2903 6.83654C54.832 7.04976 55.3586 7.40729 55.8702 7.90697H55.8917V6.77193H58.2412V16.9615H55.8917V15.8264H55.8702C55.3586 16.3261 54.8341 16.6901 54.301 16.9184C53.7679 17.1467 53.194 17.2608 52.5813 17.2608C51.8548 17.2608 51.1819 17.1208 50.5629 16.843C49.9438 16.5652 49.4085 16.1839 48.9614 15.6972C48.5121 15.2126 48.1639 14.6418 47.9146 13.9849C47.6631 13.3302 47.5405 12.6151 47.5405 11.8462ZM49.933 11.8462C49.933 12.3179 49.9997 12.7551 50.1351 13.1622C50.2705 13.5693 50.4661 13.9225 50.7219 14.2219C50.9777 14.5212 51.2959 14.7538 51.6721 14.9175C52.0504 15.0812 52.4739 15.1631 52.9425 15.1631C53.4132 15.1631 53.8367 15.0812 54.2129 14.9175C54.5912 14.7538 54.9137 14.5255 55.1845 14.2326C55.4553 13.9397 55.666 13.5951 55.8143 13.1945C55.9648 12.796 56.0379 12.3588 56.0379 11.8893C56.0379 11.4327 55.9627 11.0041 55.8143 10.6057C55.6639 10.2072 55.4553 9.86045 55.1845 9.56753C54.9137 9.27462 54.5891 9.04201 54.2129 8.87186C53.8345 8.69956 53.4197 8.61556 52.964 8.61556C52.5082 8.61556 52.0912 8.70171 51.7129 8.87186C51.3346 9.04416 51.0143 9.27246 50.752 9.55676C50.4876 9.84322 50.2856 10.1814 50.1437 10.5733C50.004 10.9653 49.933 11.3896 49.933 11.8462Z" fill="white"/>
<path d="M65.2081 6.51562C65.8487 6.51562 66.4398 6.62332 66.9815 6.83654C67.5232 7.04976 68.0498 7.40729 68.5614 7.90697H68.5829V6.77193H70.9324V16.9399C70.9324 18.7103 70.5154 20.0823 69.6835 21.0601C68.8495 22.0379 67.564 22.5268 65.8272 22.5268C64.359 22.5268 63.1918 22.1887 62.3233 21.5102C61.4549 20.8318 60.9626 19.8368 60.8487 18.5229L63.1982 18.3097C63.3551 19.0657 63.6367 19.6041 64.043 19.9251C64.4493 20.246 65.0512 20.4075 65.8487 20.4075C67.6715 20.4075 68.5829 19.35 68.5829 17.2393V15.8264H68.5614C67.65 16.7827 66.5537 17.2608 65.2704 17.2608C64.6019 17.2608 63.9807 17.1208 63.411 16.843C62.8414 16.5652 62.3491 16.1839 61.9364 15.6972C61.5237 15.2126 61.1991 14.6418 60.9648 13.9849C60.7305 13.328 60.6122 12.6151 60.6122 11.8441C60.6122 11.0881 60.7305 10.386 60.9648 9.73553C61.1991 9.08724 61.5237 8.52295 61.9364 8.04481C62.3491 7.56667 62.8328 7.19191 63.3895 6.92054C63.9484 6.65131 64.5546 6.51562 65.2081 6.51562ZM65.8293 15.1631C66.27 15.1631 66.6698 15.0812 67.0266 14.9175C67.3835 14.7538 67.6887 14.5255 67.9445 14.2326C68.2003 13.9397 68.3959 13.5951 68.5313 13.1945C68.6668 12.796 68.7334 12.3588 68.7334 11.8893C68.7334 11.4327 68.6646 11.0041 68.5313 10.6057C68.3959 10.2072 68.2003 9.86045 67.9445 9.56753C67.6887 9.27462 67.3813 9.04201 67.0266 8.87186C66.6698 8.69956 66.2786 8.61556 65.8508 8.61556C65.423 8.61556 65.0361 8.70171 64.6857 8.87186C64.3375 9.04416 64.0365 9.27246 63.7872 9.55676C63.5378 9.84322 63.3465 10.1814 63.2111 10.5733C63.0757 10.9653 63.009 11.3896 63.009 11.8462C63.009 12.3179 63.0735 12.7551 63.2003 13.1622C63.3293 13.5693 63.5142 13.9225 63.7549 14.2219C63.9979 14.5212 64.2923 14.7538 64.6427 14.9175C64.991 15.0812 65.3865 15.1631 65.8293 15.1631Z" fill="white"/>
<path d="M77.8992 6.51562C78.5398 6.51562 79.131 6.62332 79.6727 6.83654C80.2144 7.04976 80.741 7.40729 81.2526 7.90697H81.2741V6.77193H83.6236V16.9399C83.6236 18.7103 83.2066 20.0823 82.3747 21.0601C81.5407 22.0379 80.2552 22.5268 78.5183 22.5268C77.0502 22.5268 75.8829 22.1887 75.0145 21.5102C74.1461 20.8318 73.6538 19.8368 73.5399 18.5229L75.8894 18.3097C76.0463 19.0657 76.3279 19.6041 76.7342 19.9251C77.1404 20.246 77.7423 20.4075 78.5398 20.4075C80.3627 20.4075 81.2741 19.35 81.2741 17.2393V15.8264H81.2526C80.3412 16.7827 79.2449 17.2608 77.9616 17.2608C77.2931 17.2608 76.6718 17.1208 76.1022 16.843C75.5325 16.5652 75.0403 16.1839 74.6276 15.6972C74.2148 15.2126 73.8902 14.6418 73.6559 13.9849C73.4216 13.328 73.3034 12.6151 73.3034 11.8441C73.3034 11.0881 73.4216 10.386 73.6559 9.73553C73.8902 9.08724 74.2148 8.52295 74.6276 8.04481C75.0403 7.56667 75.5239 7.19191 76.0807 6.92054C76.6396 6.65131 77.2458 6.51562 77.8992 6.51562ZM78.5205 15.1631C78.9612 15.1631 79.361 15.0812 79.7178 14.9175C80.0746 14.7538 80.3799 14.5255 80.6357 14.2326C80.8915 13.9397 81.0871 13.5951 81.2225 13.1945C81.358 12.796 81.4246 12.3588 81.4246 11.8893C81.4246 11.4327 81.3558 11.0041 81.2225 10.6057C81.0871 10.2072 80.8915 9.86045 80.6357 9.56753C80.3799 9.27462 80.0725 9.04201 79.7178 8.87186C79.361 8.69956 78.9698 8.61556 78.542 8.61556C78.1142 8.61556 77.7273 8.70171 77.3769 8.87186C77.0287 9.04416 76.7277 9.27246 76.4784 9.55676C76.229 9.84322 76.0377 10.1814 75.9023 10.5733C75.7669 10.9653 75.7002 11.3896 75.7002 11.8462C75.7002 12.3179 75.7647 12.7551 75.8915 13.1622C76.0205 13.5693 76.2054 13.9225 76.4461 14.2219C76.689 14.5212 76.9835 14.7538 77.3339 14.9175C77.6821 15.0812 78.0777 15.1631 78.5205 15.1631Z" fill="white"/>
<path d="M90.827 6.4939C91.5815 6.4939 92.2586 6.61882 92.8562 6.86865C93.4538 7.11849 93.9568 7.47817 94.3631 7.94985C94.7694 8.42153 95.0789 8.98797 95.2917 9.65134C95.5045 10.3147 95.612 11.0534 95.612 11.8676V12.4233H88.327C88.3979 13.2654 88.6623 13.9331 89.1181 14.4241C89.5738 14.9173 90.1929 15.1629 90.9775 15.1629C91.5471 15.1629 92.0351 15.0336 92.4413 14.7773C92.8476 14.521 93.2281 14.0924 93.5849 13.4937L95.5067 14.6718C95.008 15.529 94.3803 16.173 93.6258 16.608C92.8713 17.0431 91.9598 17.2606 90.8915 17.2606C90.137 17.2606 89.4491 17.1314 88.83 16.8751C88.2109 16.6188 87.6843 16.2548 87.2501 15.7831C86.8158 15.3115 86.4762 14.745 86.2354 14.0817C85.9925 13.4183 85.8722 12.686 85.8722 11.887C85.8722 11.0879 85.9904 10.3556 86.2247 9.69226C86.459 9.02889 86.7943 8.46245 87.2286 7.99077C87.6628 7.5191 88.1873 7.15295 88.7999 6.88804C89.4083 6.62528 90.0854 6.4939 90.827 6.4939ZM88.4775 10.4956H93.2001C93.1013 9.86672 92.8412 9.39288 92.4198 9.07197C92.0007 8.75106 91.4762 8.58952 90.8485 8.58952C90.2208 8.58952 89.7092 8.76183 89.3094 9.10428C88.9095 9.44673 88.6322 9.91195 88.4775 10.4956Z" fill="white"/>
<path d="M97.8562 6.77173H100.206V7.6914H100.249C100.633 7.27787 100.992 6.97419 101.328 6.7825C101.663 6.59082 102.078 6.4939 102.579 6.4939C103.192 6.4939 103.832 6.70066 104.501 7.11419L103.432 9.25504C102.992 8.94059 102.555 8.78337 102.13 8.78337C100.848 8.78337 100.208 9.7461 100.208 11.6737V16.9613H97.8584V6.77173H97.8562Z" fill="white"/>
</svg>
