<svg width="171" height="40" viewBox="0 0 171 40" fill="none" xmlns="http://www.w3.org/2000/svg">
<path d="M22.7153 12.0238C21.4575 10.5593 19.9412 9.3474 18.2211 8.44282C17.0379 5.775 14.4074 3.91414 11.3548 3.91414C8.3021 3.91414 5.68022 5.775 4.49993 8.44282C2.77977 9.3474 1.26349 10.5621 0.0056772 12.0238C-0.195344 5.42178 4.96803 0 11.3576 0C17.753 0 22.9077 5.42178 22.7153 12.0238Z" fill="url(#paint0_linear_48_555)"/>
<path d="M17.0148 17.1728C15.6393 15.5733 13.6118 14.5481 11.3575 14.5481C10.5448 14.5481 9.75509 14.6859 9.01992 14.9358V10.8809C9.7838 10.7172 10.562 10.6311 11.3575 10.6311C14.324 10.6311 17.0234 11.8027 19.0451 13.7124C19.1571 13.8273 19.2749 13.9393 19.3869 14.0484C19.6367 14.2868 19.8664 14.551 20.079 14.8238C20.1823 14.9559 20.2828 15.088 20.3862 15.2287C20.4781 15.3407 20.5614 15.4613 20.6447 15.5819C20.6878 15.6422 20.7194 15.6939 20.7538 15.7456C20.7624 15.7542 20.771 15.7714 20.7797 15.78C20.8371 15.8748 20.906 15.9782 20.9634 16.0816C21.0553 16.2194 21.13 16.3573 21.2075 16.4951C21.2162 16.5037 21.2248 16.5123 21.2248 16.5209C21.3081 16.676 21.3913 16.8311 21.4689 16.9775C21.4516 17.012 21.4344 17.0551 21.4028 17.1068C21.3942 17.1326 21.377 17.1498 21.3597 17.1843C21.3339 17.2188 21.3081 17.2705 21.2851 17.3221C21.2104 17.46 21.1099 17.6237 21.0008 17.8218C20.9749 17.8649 20.9893 17.9396 20.9893 17.9396C20.9893 17.9396 20.9175 17.9683 20.9089 17.9769C20.616 18.5024 20.2139 19.1916 19.743 19.9986C17.4829 23.861 13.6635 30.331 12.0611 32.8925C11.7308 33.4181 10.9842 33.4181 10.6539 32.8925C9.05151 30.3339 5.23786 23.8696 2.98355 20.0043C2.51546 19.1945 2.11054 18.4967 1.80901 17.974C1.8004 17.9654 1.79178 17.9482 1.79178 17.9396C1.76593 17.8965 1.74009 17.862 1.71712 17.819C1.69127 17.7673 1.66542 17.7242 1.63384 17.6811C1.55917 17.5433 1.49025 17.4227 1.43281 17.3193C1.40697 17.2676 1.38112 17.2159 1.35815 17.1814C1.34092 17.147 1.3323 17.1297 1.31507 17.1039C1.28923 17.0522 1.26338 17.0091 1.24902 16.9747C1.3323 16.8196 1.40697 16.6645 1.49312 16.5181C1.5764 16.3716 1.6683 16.2165 1.76019 16.0701C1.76881 16.0529 1.77742 16.027 1.79465 16.0098C1.86932 15.8892 1.9526 15.7599 2.03875 15.6393C2.13064 15.5015 2.23115 15.3636 2.33167 15.2258C2.33167 15.2172 2.34028 15.2086 2.34028 15.2086C2.43218 15.0966 2.51546 14.9846 2.59874 14.8812C2.61597 14.8467 2.64181 14.8209 2.66479 14.795C2.7653 14.6658 2.87442 14.5452 2.98355 14.4246C3.09267 14.2954 3.21041 14.1661 3.32816 14.0455L3.68999 13.6837L11.3604 26.5949C11.6246 26.2962 15.1626 20.3145 17.0148 17.1728Z" fill="url(#paint1_linear_48_555)"/>
<path d="M31.3936 21.8767C31.3936 20.2771 31.6893 18.7953 32.278 17.4227C32.8668 16.0529 33.6708 14.864 34.6903 13.856C35.7069 12.848 36.9015 12.0583 38.2713 11.4868C39.6412 10.9154 41.0971 10.6311 42.6392 10.6311C43.495 10.6311 44.3077 10.7115 45.0802 10.8752C45.8498 11.036 46.5936 11.3002 47.3058 11.6591C48.018 12.021 48.7187 12.4776 49.405 13.0289C50.0914 13.5803 50.7749 14.2466 51.4612 15.0277L49.1495 17.2245C47.3805 14.8841 45.2295 13.7124 42.6996 13.7124C41.5566 13.7124 40.4969 13.922 39.5177 14.3413C38.5384 14.7606 37.6855 15.3349 36.9618 16.0672C36.2382 16.7995 35.6724 17.661 35.2646 18.6517C34.854 19.6425 34.6501 20.7165 34.6501 21.8767C34.6501 23.0569 34.8741 24.1425 35.3221 25.1303C35.7701 26.1211 36.3588 26.9711 37.0911 27.6861C37.8234 28.3983 38.6562 28.9554 39.5895 29.3575C40.5228 29.7566 41.4733 29.9577 42.444 29.9577C43.3371 29.9577 44.167 29.8112 44.928 29.5154C45.689 29.2196 46.3495 28.8262 46.9124 28.3323C47.4724 27.8383 47.9261 27.2525 48.2678 26.5777C48.6096 25.9028 48.8192 25.1935 48.8967 24.4497V24.421H43.5295V21.3626H52.4347V22.0748C52.4347 23.7117 52.1964 25.1992 51.7225 26.5432C51.2458 27.8843 50.5767 29.0301 49.7094 29.9835C48.8422 30.934 47.7883 31.6721 46.5419 32.1947C45.2956 32.7174 43.9028 32.9787 42.3607 32.9787C40.8387 32.9787 39.4114 32.6886 38.0789 32.1086C36.7465 31.5285 35.5863 30.733 34.5955 29.725C33.6048 28.7171 32.8265 27.5368 32.2551 26.1871C31.6807 24.8345 31.3936 23.3987 31.3936 21.8767Z" fill="#619B8A"/>
<path d="M61.5925 18.623C62.6005 18.623 63.5051 18.7896 64.3034 19.1227C65.1017 19.4558 65.7737 19.9354 66.3165 20.5643C66.8592 21.1932 67.2728 21.9485 67.5571 22.8329C67.8414 23.7174 67.985 24.7024 67.985 25.7879V26.5288H58.2527C58.3474 27.6517 58.7007 28.5419 59.3095 29.1966C59.9183 29.8543 60.7453 30.1816 61.7935 30.1816C62.5545 30.1816 63.2064 30.0093 63.7492 29.6676C64.2919 29.3259 64.8002 28.7544 65.2769 27.9561L67.8442 29.5269C67.178 30.6698 66.3395 31.5285 65.3315 32.1085C64.3235 32.6886 63.1059 32.9787 61.6786 32.9787C60.6707 32.9787 59.7517 32.8064 58.9246 32.4646C58.0976 32.1229 57.394 31.6376 56.8139 31.0087C56.2338 30.3798 55.7801 29.6245 55.4585 28.74C55.134 27.8556 54.9731 26.8792 54.9731 25.8138C54.9731 24.7484 55.1311 23.772 55.4441 22.8875C55.7571 22.003 56.2051 21.2478 56.7852 20.6189C57.3653 19.9899 58.066 19.5018 58.8844 19.1485C59.7 18.7982 60.6046 18.623 61.5925 18.623ZM58.4537 23.9586H64.7629C64.6308 23.1201 64.2833 22.4883 63.7204 22.0604C63.1604 21.6326 62.4597 21.4172 61.6212 21.4172C60.7827 21.4172 60.0992 21.6469 59.565 22.1035C59.0338 22.5601 58.6633 23.1804 58.4537 23.9586Z" fill="#619B8A"/>
<path d="M70.041 25.7018C70.041 24.7311 70.2133 23.8179 70.5551 22.9622C70.8968 22.1064 71.3879 21.3598 72.0254 20.7222C72.6629 20.0847 73.4239 19.5764 74.3084 19.1945C75.1929 18.8154 76.1779 18.623 77.2634 18.623C78.3489 18.623 79.3339 18.8097 80.2184 19.1801C81.1029 19.5506 81.8639 20.0617 82.5015 20.7079C83.139 21.354 83.6329 22.115 83.9861 22.9909C84.3394 23.8668 84.5145 24.8087 84.5145 25.8166C84.5145 26.8246 84.3394 27.7665 83.9861 28.6424C83.6329 29.5183 83.139 30.2735 82.5015 30.9111C81.8639 31.5486 81.0972 32.054 80.2041 32.4244C79.311 32.7949 78.3116 32.9816 77.206 32.9816C76.1406 32.9816 75.1642 32.7949 74.2797 32.4244C73.3952 32.054 72.6371 31.5457 72.011 30.8967C71.3821 30.2506 70.8968 29.4781 70.5551 28.585C70.2133 27.689 70.041 26.7298 70.041 25.7018ZM73.2373 25.7592C73.2373 27.1118 73.5991 28.1858 74.3228 28.9841C75.0464 29.7825 76.0257 30.1816 77.2634 30.1816C78.481 30.1816 79.4603 29.7825 80.2041 28.9841C80.9479 28.1858 81.3183 27.129 81.3183 25.8166C81.3183 24.5244 80.9507 23.4705 80.2184 22.6635C79.4861 21.8537 78.5011 21.4516 77.2634 21.4516C76.6747 21.4516 76.132 21.555 75.6352 21.7647C75.1412 21.9743 74.7133 22.273 74.3515 22.6635C73.9896 23.0541 73.714 23.5107 73.5244 24.0333C73.3349 24.556 73.2373 25.1303 73.2373 25.7592Z" fill="#619B8A"/>
<path d="M88.1676 18.9935V14.0254H91.3064V18.9906H93.733V21.9312H91.3064V32.5766H88.1676V21.9341H85.9707V18.9935H88.1676Z" fill="#233D4D"/>
<path d="M94.9048 25.7592C94.9048 24.7513 95.0713 23.8151 95.4045 22.9478C95.7376 22.0835 96.2028 21.3311 96.803 20.6935C97.4032 20.056 98.1068 19.5564 98.9137 19.1945C99.7235 18.8327 100.602 18.6518 101.553 18.6518C102.409 18.6518 103.198 18.7954 103.922 19.0796C104.646 19.3639 105.349 19.8407 106.033 20.5069H106.061V18.9935H109.2V32.5795H106.061V31.0662H106.033C105.349 31.7324 104.649 32.2177 103.936 32.5221C103.224 32.8265 102.457 32.9787 101.639 32.9787C100.668 32.9787 99.7695 32.7921 98.9424 32.4216C98.1154 32.0512 97.4003 31.5429 96.803 30.8939C96.2028 30.2477 95.7376 29.4867 95.4045 28.6108C95.0685 27.7378 94.9048 26.7844 94.9048 25.7592ZM98.101 25.7592C98.101 26.3881 98.19 26.9711 98.371 27.5139C98.5519 28.0566 98.8132 28.5276 99.1549 28.9267C99.4967 29.3259 99.9217 29.636 100.424 29.8543C100.93 30.0725 101.495 30.1817 102.121 30.1817C102.75 30.1817 103.316 30.0725 103.819 29.8543C104.324 29.636 104.755 29.3316 105.117 28.9411C105.478 28.5505 105.76 28.0911 105.958 27.5569C106.159 27.0257 106.257 26.4427 106.257 25.8167C106.257 25.2079 106.156 24.6364 105.958 24.1051C105.757 23.5739 105.478 23.1115 105.117 22.721C104.755 22.3304 104.321 22.0203 103.819 21.7934C103.313 21.5637 102.759 21.4517 102.15 21.4517C101.541 21.4517 100.984 21.5665 100.479 21.7934C99.9734 22.0231 99.5455 22.3275 99.1952 22.7066C98.8419 23.0886 98.572 23.5394 98.3824 24.0621C98.1958 24.5847 98.101 25.1504 98.101 25.7592Z" fill="#233D4D"/>
<path d="M118.507 18.6518C119.363 18.6518 120.153 18.7954 120.877 19.0796C121.6 19.3639 122.304 19.8407 122.987 20.5069H123.016V18.9935H126.155V32.5508C126.155 34.9114 125.598 36.7406 124.486 38.0444C123.372 39.3482 121.655 40 119.334 40C117.373 40 115.814 39.5492 114.654 38.6446C113.493 37.74 112.836 36.4133 112.684 34.6615L115.822 34.3772C116.032 35.3852 116.408 36.1031 116.951 36.531C117.494 36.9589 118.298 37.1743 119.363 37.1743C121.798 37.1743 123.016 35.7643 123.016 32.95V31.0662H122.987C121.77 32.3412 120.305 32.9787 118.591 32.9787C117.698 32.9787 116.868 32.792 116.107 32.4216C115.346 32.0511 114.688 31.5429 114.137 30.8939C113.585 30.2477 113.152 29.4867 112.839 28.6108C112.526 27.735 112.368 26.7844 112.368 25.7564C112.368 24.7484 112.526 23.8122 112.839 22.945C113.152 22.0806 113.585 21.3282 114.137 20.6907C114.688 20.0532 115.334 19.5535 116.078 19.1916C116.825 18.8327 117.634 18.6518 118.507 18.6518ZM119.337 30.1817C119.926 30.1817 120.46 30.0725 120.937 29.8543C121.414 29.636 121.821 29.3316 122.163 28.9411C122.505 28.5505 122.766 28.0911 122.947 27.5569C123.128 27.0257 123.217 26.4427 123.217 25.8167C123.217 25.2079 123.125 24.6364 122.947 24.1051C122.766 23.5739 122.505 23.1115 122.163 22.721C121.821 22.3304 121.411 22.0203 120.937 21.7934C120.46 21.5637 119.938 21.4517 119.366 21.4517C118.795 21.4517 118.278 21.5665 117.81 21.7934C117.344 22.0231 116.942 22.3275 116.609 22.7066C116.276 23.0886 116.021 23.5394 115.84 24.0621C115.659 24.5847 115.57 25.1504 115.57 25.7592C115.57 26.3881 115.656 26.9711 115.825 27.5139C115.998 28.0566 116.245 28.5276 116.566 28.9267C116.891 29.3259 117.284 29.636 117.752 29.8543C118.217 30.0725 118.746 30.1817 119.337 30.1817Z" fill="#233D4D"/>
<path d="M135.462 18.6518C136.318 18.6518 137.108 18.7954 137.831 19.0796C138.555 19.3639 139.258 19.8407 139.942 20.5069H139.971V18.9935H143.109V32.5508C143.109 34.9114 142.552 36.7406 141.441 38.0444C140.327 39.3482 138.609 40 136.289 40C134.328 40 132.768 39.5492 131.608 38.6446C130.448 37.74 129.79 36.4133 129.638 34.6615L132.777 34.3772C132.987 35.3852 133.363 36.1031 133.906 36.531C134.448 36.9589 135.252 37.1743 136.318 37.1743C138.753 37.1743 139.971 35.7643 139.971 32.95V31.0662H139.942C138.724 32.3412 137.26 32.9787 135.545 32.9787C134.652 32.9787 133.822 32.792 133.061 32.4216C132.3 32.0511 131.643 31.5429 131.091 30.8939C130.54 30.2477 130.106 29.4867 129.793 28.6108C129.48 27.735 129.322 26.7844 129.322 25.7564C129.322 24.7484 129.48 23.8122 129.793 22.945C130.106 22.0806 130.54 21.3282 131.091 20.6907C131.643 20.0532 132.289 19.5535 133.033 19.1916C133.779 18.8327 134.589 18.6518 135.462 18.6518ZM136.292 30.1817C136.881 30.1817 137.415 30.0725 137.892 29.8543C138.368 29.636 138.776 29.3316 139.118 28.9411C139.459 28.5505 139.721 28.0911 139.902 27.5569C140.083 27.0257 140.172 26.4427 140.172 25.8167C140.172 25.2079 140.08 24.6364 139.902 24.1051C139.721 23.5739 139.459 23.1115 139.118 22.721C138.776 22.3304 138.365 22.0203 137.892 21.7934C137.415 21.5637 136.892 21.4517 136.321 21.4517C135.749 21.4517 135.232 21.5665 134.764 21.7934C134.299 22.0231 133.897 22.3275 133.564 22.7066C133.231 23.0886 132.975 23.5394 132.794 24.0621C132.613 24.5847 132.524 25.1504 132.524 25.7592C132.524 26.3881 132.61 26.9711 132.78 27.5139C132.952 28.0566 133.199 28.5276 133.521 28.9267C133.845 29.3259 134.239 29.636 134.707 29.8543C135.172 30.0725 135.7 30.1817 136.292 30.1817Z" fill="#233D4D"/>
<path d="M152.733 18.623C153.741 18.623 154.645 18.7896 155.444 19.1227C156.242 19.4558 156.914 19.9354 157.457 20.5643C157.999 21.1932 158.413 21.9485 158.697 22.8329C158.982 23.7174 159.125 24.7024 159.125 25.7879V26.5288H149.393C149.488 27.6517 149.841 28.5419 150.45 29.1966C151.058 29.8543 151.885 30.1816 152.934 30.1816C153.695 30.1816 154.347 30.0093 154.889 29.6676C155.432 29.3259 155.94 28.7544 156.417 27.9561L158.984 29.5269C158.318 30.6698 157.48 31.5285 156.472 32.1085C155.464 32.6886 154.246 32.9787 152.819 32.9787C151.811 32.9787 150.892 32.8064 150.065 32.4646C149.238 32.1229 148.534 31.6376 147.954 31.0087C147.374 30.3798 146.92 29.6245 146.599 28.74C146.274 27.8556 146.113 26.8792 146.113 25.8138C146.113 24.7484 146.271 23.772 146.584 22.8875C146.897 22.003 147.345 21.2478 147.925 20.6189C148.505 19.9899 149.206 19.5018 150.025 19.1485C150.837 18.7982 151.742 18.623 152.733 18.623ZM149.594 23.9586H155.903C155.771 23.1201 155.423 22.4883 154.861 22.0604C154.301 21.6326 153.6 21.4172 152.761 21.4172C151.923 21.4172 151.239 21.6469 150.705 22.1035C150.171 22.5601 149.801 23.1804 149.594 23.9586Z" fill="#233D4D"/>
<path d="M162.124 18.9935H165.262V20.2197H165.32C165.834 19.6683 166.313 19.2634 166.761 19.0078C167.209 18.7522 167.764 18.623 168.433 18.623C169.251 18.623 170.107 18.8987 171 19.4501L169.573 22.3045C168.984 21.8853 168.401 21.6756 167.833 21.6756C166.121 21.6756 165.265 22.9593 165.265 25.5295V32.5795H162.126V18.9935H162.124Z" fill="#233D4D"/>
<defs>
<linearGradient id="paint0_linear_48_555" x1="-6.62581e-05" y1="6.01218" x2="22.7212" y2="6.01218" gradientUnits="userSpaceOnUse">
<stop stop-color="#659E89"/>
<stop offset="0.3212" stop-color="#619B8A"/>
<stop offset="1" stop-color="#A1C181"/>
</linearGradient>
<linearGradient id="paint1_linear_48_555" x1="4.4533" y1="26.7246" x2="18.2596" y2="12.9182" gradientUnits="userSpaceOnUse">
<stop stop-color="#FE7F2D"/>
<stop offset="1" stop-color="#FCCA46"/>
</linearGradient>
</defs>
</svg>
